<svg width="20" height="20" viewBox="0 0 20 20" fill="none" xmlns="http://www.w3.org/2000/svg">
<path d="M11.7674 10.0003L14.9999 6.76442C15.2098 6.52589 15.321 6.21639 15.3108 5.89883C15.3007 5.58128 15.17 5.2795 14.9454 5.05484C14.7207 4.83018 14.4189 4.6995 14.1014 4.68936C13.7838 4.67922 13.4743 4.79039 13.2358 5.00026L9.99994 8.23276L6.75828 4.99026C6.64216 4.87415 6.50432 4.78204 6.35262 4.7192C6.20091 4.65637 6.03831 4.62402 5.87411 4.62402C5.7099 4.62402 5.54731 4.65637 5.3956 4.7192C5.2439 4.78204 5.10605 4.87415 4.98994 4.99026C4.87383 5.10637 4.78173 5.24421 4.71889 5.39592C4.65605 5.54762 4.62371 5.71022 4.62371 5.87442C4.62371 6.03863 4.65605 6.20123 4.71889 6.35293C4.78173 6.50464 4.87383 6.64248 4.98994 6.75859L8.23244 10.0003L4.99994 13.2353C4.87317 13.3486 4.77085 13.4866 4.69924 13.6408C4.62764 13.795 4.58825 13.9622 4.5835 14.1322C4.57874 14.3022 4.60871 14.4714 4.67158 14.6293C4.73445 14.7873 4.82889 14.9308 4.94912 15.0511C5.06936 15.1713 5.21286 15.2658 5.37086 15.3286C5.52885 15.3915 5.698 15.4215 5.86798 15.4167C6.03795 15.4119 6.20517 15.3726 6.35939 15.301C6.51362 15.2293 6.65162 15.127 6.76494 15.0003L9.99994 11.7678L13.2316 15.0003C13.4661 15.2348 13.7841 15.3665 14.1158 15.3665C14.4474 15.3665 14.7654 15.2348 14.9999 15.0003C15.2344 14.7658 15.3662 14.4477 15.3662 14.1161C15.3662 13.7845 15.2344 13.4664 14.9999 13.2319L11.7674 10.0003Z" fill="#EEEEEE"/>
</svg>
