<svg width="19" height="19" viewBox="0 0 19 19" fill="none" xmlns="http://www.w3.org/2000/svg">
<g clip-path="url(#clip0_2280_315)">
<path d="M19 8.90432C18.8855 7.05184 18.2315 5.27335 17.1184 3.78812C16.0053 2.30288 14.482 1.17583 12.7361 0.545901C10.9903 -0.0840268 9.09827 -0.18929 7.29332 0.243089C5.48836 0.675467 3.84939 1.62658 2.57846 2.97919C1.30752 4.33179 0.460188 6.02674 0.14091 7.85509C-0.178368 9.68344 0.0443696 11.5653 0.781664 13.2686C1.51896 14.9718 2.73858 16.4221 4.29017 17.4407C5.84175 18.4592 7.65748 19.0014 9.5135 19.0004H15.0417C16.0912 18.9994 17.0974 18.582 17.8395 17.8399C18.5816 17.0978 18.999 16.0916 19 15.0421V8.90432ZM17.4167 15.0421C17.4167 15.672 17.1665 16.2761 16.7211 16.7215C16.2757 17.1669 15.6716 17.4171 15.0417 17.4171H9.5135C8.3964 17.4166 7.29196 17.1807 6.27217 16.7246C5.25239 16.2686 4.34017 15.6028 3.595 14.7706C2.84622 13.9387 2.28394 12.9564 1.94587 11.8895C1.6078 10.8226 1.50175 9.69575 1.63483 8.58449C1.84497 6.83169 2.63248 5.19868 3.87322 3.94289C5.11396 2.68709 6.73736 1.87995 8.4875 1.6487C8.82889 1.60591 9.1726 1.58423 9.51666 1.58378C11.3616 1.57875 13.1495 2.22337 14.5667 3.40461C15.3944 4.09253 16.0738 4.94136 16.5637 5.89965C17.0536 6.85795 17.3438 7.90575 17.4167 8.97953V15.0421Z" fill="white"/>
<path d="M6.33329 7.12533H9.49996C9.70992 7.12533 9.91129 7.04192 10.0598 6.89345C10.2082 6.74499 10.2916 6.54362 10.2916 6.33366C10.2916 6.1237 10.2082 5.92233 10.0598 5.77387C9.91129 5.6254 9.70992 5.54199 9.49996 5.54199H6.33329C6.12333 5.54199 5.92197 5.6254 5.7735 5.77387C5.62503 5.92233 5.54163 6.1237 5.54163 6.33366C5.54163 6.54362 5.62503 6.74499 5.7735 6.89345C5.92197 7.04192 6.12333 7.12533 6.33329 7.12533Z" fill="white"/>
<path d="M12.6666 8.70801H6.33329C6.12333 8.70801 5.92197 8.79142 5.7735 8.93988C5.62503 9.08835 5.54163 9.28971 5.54163 9.49967C5.54163 9.70964 5.62503 9.911 5.7735 10.0595C5.92197 10.2079 6.12333 10.2913 6.33329 10.2913H12.6666C12.8766 10.2913 13.078 10.2079 13.2264 10.0595C13.3749 9.911 13.4583 9.70964 13.4583 9.49967C13.4583 9.28971 13.3749 9.08835 13.2264 8.93988C13.078 8.79142 12.8766 8.70801 12.6666 8.70801Z" fill="white"/>
<path d="M12.6666 11.875H6.33329C6.12333 11.875 5.92197 11.9584 5.7735 12.1069C5.62503 12.2553 5.54163 12.4567 5.54163 12.6667C5.54163 12.8766 5.62503 13.078 5.7735 13.2265C5.92197 13.3749 6.12333 13.4583 6.33329 13.4583H12.6666C12.8766 13.4583 13.078 13.3749 13.2264 13.2265C13.3749 13.078 13.4583 12.8766 13.4583 12.6667C13.4583 12.4567 13.3749 12.2553 13.2264 12.1069C13.078 11.9584 12.8766 11.875 12.6666 11.875Z" fill="white"/>
</g>
<defs>
<clipPath id="clip0_2280_315">
<rect width="19" height="19" fill="white"/>
</clipPath>
</defs>
</svg>
